<svg width="143" height="48" viewBox="0 0 143 48" fill="none" xmlns="http://www.w3.org/2000/svg">
<rect x="0.5" y="0.5" width="142" height="47" rx="6.5" fill="#0C0D10"/>
<rect x="0.5" y="0.5" width="142" height="47" rx="6.5" stroke="#A6A6A6"/>
<path d="M97.1516 23.0412V25.7904H95.4404V27.5933H97.1516V33.7193C97.1516 35.8111 98.0913 36.6478 100.455 36.6478C100.871 36.6478 101.267 36.598 101.613 36.5382V34.7552C101.316 34.7851 101.128 34.805 100.802 34.805C99.7433 34.805 99.2784 34.307 99.2784 33.1715V27.5933H101.613V25.7904H99.2784V23.0412H97.1516Z" fill="white"/>
<path d="M107.635 36.7972C110.781 36.7972 112.71 34.6756 112.71 31.1593C112.71 27.6631 110.771 25.5314 107.635 25.5314C104.49 25.5314 102.551 27.6631 102.551 31.1593C102.551 34.6756 104.48 36.7972 107.635 36.7972ZM107.635 34.8947C105.786 34.8947 104.747 33.53 104.747 31.1593C104.747 28.8086 105.786 27.434 107.635 27.434C109.475 27.434 110.524 28.8086 110.524 31.1593C110.524 33.5201 109.475 34.8947 107.635 34.8947Z" fill="white"/>
<path d="M114.36 36.5881H116.487V30.1832C116.487 28.6591 117.624 27.6332 119.237 27.6332C119.613 27.6332 120.246 27.7029 120.424 27.7627V25.6509C120.196 25.5912 119.791 25.5613 119.474 25.5613C118.07 25.5613 116.873 26.3382 116.566 27.4041H116.408V25.7406H114.36V36.5881Z" fill="white"/>
<path d="M125.704 27.3543C127.277 27.3543 128.306 28.4599 128.355 30.1632H122.915C123.034 28.4699 124.132 27.3543 125.704 27.3543ZM128.346 33.6595C127.95 34.5062 127.069 34.9744 125.784 34.9744C124.082 34.9744 122.984 33.7691 122.915 31.8666V31.747H130.522V31C130.522 27.5933 128.712 25.5314 125.714 25.5314C122.678 25.5314 120.749 27.7328 120.749 31.1992C120.749 34.6656 122.638 36.7972 125.724 36.7972C128.187 36.7972 129.908 35.6019 130.393 33.6595H128.346Z" fill="white"/>
<path d="M83.2049 32.5823C83.3689 35.2459 85.5732 36.9494 88.854 36.9494C92.3604 36.9494 94.5544 35.1633 94.5544 32.3138C94.5544 30.0735 93.3036 28.8346 90.2688 28.1222L88.6387 27.7195C86.7112 27.2653 85.932 26.6562 85.932 25.5928C85.932 24.2506 87.1418 23.3731 88.9565 23.3731C90.679 23.3731 91.8682 24.23 92.0835 25.6031H94.3186C94.1853 23.0943 91.9913 21.3289 88.9873 21.3289C85.7577 21.3289 83.6047 23.0943 83.6047 25.7476C83.6047 27.9364 84.8248 29.2372 87.5007 29.867L89.4076 30.3316C91.3659 30.7962 92.2271 31.4776 92.2271 32.6132C92.2271 33.9347 90.8737 34.8949 89.0283 34.8949C87.0496 34.8949 85.6757 33.9967 85.4809 32.5823H83.2049Z" fill="white"/>
<path d="M61.1741 25.5613C59.7101 25.5613 58.444 26.2984 57.7911 27.5336H57.6329V25.7406H55.5853V40.1939H57.712V34.9445H57.8802C58.444 36.09 59.6607 36.7673 61.1939 36.7673C63.9141 36.7673 65.6452 34.6058 65.6452 31.1593C65.6452 27.7129 63.9141 25.5613 61.1741 25.5613ZM60.5707 34.8449C58.7902 34.8449 57.6724 33.4304 57.6724 31.1693C57.6724 28.8982 58.7902 27.4838 60.5806 27.4838C62.3809 27.4838 63.4591 28.8683 63.4591 31.1593C63.4591 33.4603 62.3809 34.8449 60.5707 34.8449Z" fill="white"/>
<path d="M73.087 25.5613C71.623 25.5613 70.3568 26.2984 69.704 27.5336H69.5457V25.7406H67.4981V40.1939H69.6248V34.9445H69.793C70.3568 36.09 71.5735 36.7673 73.1068 36.7673C75.827 36.7673 77.558 34.6058 77.558 31.1593C77.558 27.7129 75.827 25.5613 73.087 25.5613ZM72.4836 34.8449C70.7031 34.8449 69.5853 33.4304 69.5853 31.1693C69.5853 28.8982 70.7031 27.4838 72.4935 27.4838C74.2938 27.4838 75.372 28.8683 75.372 31.1593C75.372 33.4603 74.2938 34.8449 72.4836 34.8449Z" fill="white"/>
<path d="M51.7696 36.5881H54.2097L48.8681 21.6902H46.3972L41.0557 36.5881H43.4137L44.7773 32.6339H50.4162L51.7696 36.5881ZM47.5148 24.3952H47.689L49.8318 30.6929H45.3617L47.5148 24.3952Z" fill="white"/>
<path d="M42.4843 10.4532V17.64H45.0611C47.1878 17.64 48.4193 16.3202 48.4193 14.0242C48.4193 11.7631 47.1779 10.4532 45.0611 10.4532H42.4843ZM43.5921 11.4692H44.9374C46.4162 11.4692 47.2917 12.4155 47.2917 14.0392C47.2917 15.6877 46.4311 16.624 44.9374 16.624H43.5921V11.4692Z" fill="white"/>
<path d="M52.191 17.7446C53.7638 17.7446 54.7283 16.6838 54.7283 14.9257C54.7283 13.1775 53.7589 12.1117 52.191 12.1117C50.6183 12.1117 49.6489 13.1775 49.6489 14.9257C49.6489 16.6838 50.6133 17.7446 52.191 17.7446ZM52.191 16.7934C51.2662 16.7934 50.7468 16.111 50.7468 14.9257C50.7468 13.7503 51.2662 13.063 52.191 13.063C53.111 13.063 53.6352 13.7503 53.6352 14.9257C53.6352 16.1061 53.111 16.7934 52.191 16.7934Z" fill="white"/>
<path d="M62.9414 12.2163H61.878L60.9185 16.3551H60.8345L59.7266 12.2163H58.7077L57.5999 16.3551H57.5207L56.5563 12.2163H55.4781L56.9618 17.64H58.0549L59.1628 13.6457H59.2468L60.3597 17.64H61.4626L62.9414 12.2163Z" fill="white"/>
<path d="M64.166 17.64H65.2294V14.4675C65.2294 13.6208 65.7289 13.0929 66.5153 13.0929C67.3017 13.0929 67.6776 13.5262 67.6776 14.3978V17.64H68.741V14.1288C68.741 12.8389 68.0782 12.1117 66.8764 12.1117C66.0652 12.1117 65.5311 12.4753 65.2689 13.0779H65.1898V12.2163H64.166V17.64Z" fill="white"/>
<path d="M70.4156 17.64H71.479V10.0996H70.4156V17.64Z" fill="white"/>
<path d="M75.4782 17.7446C77.051 17.7446 78.0155 16.6838 78.0155 14.9257C78.0155 13.1775 77.0461 12.1117 75.4782 12.1117C73.9054 12.1117 72.9361 13.1775 72.9361 14.9257C72.9361 16.6838 73.9005 17.7446 75.4782 17.7446ZM75.4782 16.7934C74.5534 16.7934 74.034 16.111 74.034 14.9257C74.034 13.7503 74.5534 13.063 75.4782 13.063C76.3982 13.063 76.9224 13.7503 76.9224 14.9257C76.9224 16.1061 76.3982 16.7934 75.4782 16.7934Z" fill="white"/>
<path d="M81.1838 16.8282C80.6051 16.8282 80.1847 16.5443 80.1847 16.0563C80.1847 15.5781 80.5211 15.3241 81.2629 15.2743L82.5785 15.1896V15.6429C82.5785 16.3152 81.985 16.8282 81.1838 16.8282ZM80.9118 17.7297C81.619 17.7297 82.2076 17.4209 82.5291 16.878H82.6132V17.64H83.637V13.9346C83.637 12.7891 82.8753 12.1117 81.5251 12.1117C80.3034 12.1117 79.433 12.7094 79.3242 13.6407H80.3529C80.4716 13.2572 80.8821 13.0381 81.4756 13.0381C82.2027 13.0381 82.5785 13.3618 82.5785 13.9346V14.4027L81.1195 14.4874C79.8385 14.5671 79.1164 15.1299 79.1164 16.1061C79.1164 17.0972 79.8731 17.7297 80.9118 17.7297Z" fill="white"/>
<path d="M87.2455 17.7297C87.9874 17.7297 88.6155 17.3761 88.937 16.7834H89.021V17.64H90.0399V10.0996H88.9765V13.0779H88.8974C88.6056 12.4803 87.9824 12.1267 87.2455 12.1267C85.8854 12.1267 85.0099 13.2124 85.0099 14.9257C85.0099 16.6439 85.8755 17.7297 87.2455 17.7297ZM87.5472 13.0879C88.4374 13.0879 88.9963 13.8001 88.9963 14.9307C88.9963 16.0662 88.4424 16.7685 87.5472 16.7685C86.647 16.7685 86.1079 16.0762 86.1079 14.9257C86.1079 13.7852 86.652 13.0879 87.5472 13.0879Z" fill="white"/>
<path d="M96.9355 17.7446C98.5082 17.7446 99.4727 16.6838 99.4727 14.9257C99.4727 13.1775 98.5033 12.1117 96.9355 12.1117C95.3627 12.1117 94.3933 13.1775 94.3933 14.9257C94.3933 16.6838 95.3577 17.7446 96.9355 17.7446ZM96.9355 16.7934C96.0106 16.7934 95.4913 16.111 95.4913 14.9257C95.4913 13.7503 96.0106 13.063 96.9355 13.063C97.8554 13.063 98.3796 13.7503 98.3796 14.9257C98.3796 16.1061 97.8554 16.7934 96.9355 16.7934Z" fill="white"/>
<path d="M100.88 17.64H101.944V14.4675C101.944 13.6208 102.443 13.0929 103.23 13.0929C104.016 13.0929 104.392 13.5262 104.392 14.3978V17.64H105.455V14.1288C105.455 12.8389 104.792 12.1117 103.591 12.1117C102.78 12.1117 102.245 12.4753 101.983 13.0779H101.904V12.2163H100.88V17.64Z" fill="white"/>
<path d="M110.353 10.8666V12.2412H109.497V13.1427H110.353V16.2057C110.353 17.2516 110.822 17.6699 112.005 17.6699C112.212 17.6699 112.41 17.645 112.583 17.6151V16.7236C112.435 16.7386 112.341 16.7485 112.178 16.7485C111.648 16.7485 111.416 16.4995 111.416 15.9317V13.1427H112.583V12.2412H111.416V10.8666H110.353Z" fill="white"/>
<path d="M114.011 17.64H115.074V14.4725C115.074 13.6507 115.559 13.0979 116.429 13.0979C117.181 13.0979 117.582 13.5361 117.582 14.4027V17.64H118.645V14.1388C118.645 12.8488 117.938 12.1167 116.79 12.1167C115.979 12.1167 115.41 12.4803 115.148 13.0879H115.064V10.0996H114.011V17.64Z" fill="white"/>
<path d="M122.481 13.0231C123.267 13.0231 123.782 13.576 123.806 14.4276H121.086C121.146 13.581 121.695 13.0231 122.481 13.0231ZM123.801 16.1758C123.604 16.5991 123.163 16.8332 122.52 16.8332C121.67 16.8332 121.121 16.2306 121.086 15.2793V15.2195H124.89V14.846C124.89 13.1427 123.984 12.1117 122.486 12.1117C120.967 12.1117 120.003 13.2124 120.003 14.9456C120.003 16.6788 120.948 17.7446 122.491 17.7446C123.722 17.7446 124.583 17.147 124.825 16.1758H123.801Z" fill="white"/>
<path d="M29.5164 24.361C29.5422 22.3438 30.618 20.4351 32.3246 19.3786C31.248 17.8302 29.4447 16.8485 27.5685 16.7893C25.5674 16.5778 23.6274 17.9951 22.6077 17.9951C21.5683 17.9951 19.9982 16.8103 18.3076 16.8454C16.1039 16.9171 14.0495 18.1787 12.9774 20.1188C10.6727 24.1369 12.3918 30.0422 14.5994 33.2901C15.704 34.8805 16.9949 36.6571 18.684 36.5941C20.337 36.525 20.9543 35.5327 22.9495 35.5327C24.9262 35.5327 25.5054 36.5941 27.2288 36.554C29.0024 36.525 30.1199 34.9565 31.1857 33.351C31.9793 32.2178 32.59 30.9653 32.9952 29.64C30.9108 28.7523 29.5188 26.64 29.5164 24.361Z" fill="white"/>
<path d="M26.2612 14.6533C27.2282 13.4843 27.7047 11.9817 27.5893 10.4646C26.1118 10.6209 24.7471 11.3319 23.7669 12.4561C22.8085 13.5545 22.3097 15.0307 22.404 16.4898C23.882 16.5051 25.335 15.8133 26.2612 14.6533Z" fill="white"/>
</svg>
