<svg width="161" height="48" viewBox="0 0 161 48" fill="none" xmlns="http://www.w3.org/2000/svg">
<rect x="0.5" y="0.5" width="160" height="47" rx="4.5" fill="black"/>
<rect x="0.5" y="0.5" width="160" height="47" rx="4.5" stroke="#A6A6A6"/>
<path d="M127.529 36H129.755V20.998H127.529V36ZM147.573 26.4024L145.022 32.9062H144.946L142.298 26.4024H139.901L143.873 35.4924L141.608 40.5492H143.929L150.048 26.4024H147.573ZM134.952 34.2961C134.225 34.2961 133.207 33.929 133.207 33.022C133.207 31.8642 134.474 31.4203 135.566 31.4203C136.544 31.4203 137.006 31.6322 137.6 31.9219C137.427 33.3117 136.238 34.2961 134.952 34.2961ZM135.222 26.0742C133.61 26.0742 131.942 26.7885 131.251 28.3711L133.226 29.2008C133.649 28.3711 134.434 28.1011 135.26 28.1011C136.411 28.1011 137.581 28.7953 137.6 30.0309V30.1851C137.197 29.9535 136.333 29.6062 135.279 29.6062C133.149 29.6062 130.982 30.7832 130.982 32.9835C130.982 34.9908 132.728 36.284 134.684 36.284C136.179 36.284 137.006 35.6085 137.522 34.8169H137.6V35.9756H139.749V30.2235C139.749 27.5601 137.771 26.0742 135.222 26.0742ZM121.469 28.2285H118.303V23.0864H121.469C123.132 23.0864 124.077 24.472 124.077 25.6574C124.077 26.82 123.132 28.2285 121.469 28.2285ZM121.411 20.998H116.079V36H118.303V30.3164H121.411C123.878 30.3164 126.302 28.5201 126.302 25.6574C126.302 22.7953 123.878 20.998 121.411 20.998ZM92.3343 34.2988C90.7969 34.2988 89.5102 33.0032 89.5102 31.2253C89.5102 29.4267 90.7969 28.1127 92.3343 28.1127C93.8521 28.1127 95.0433 29.4267 95.0433 31.2253C95.0433 33.0032 93.8521 34.2988 92.3343 34.2988ZM94.8895 27.2424H94.8126C94.3133 26.6432 93.3522 26.1019 92.1424 26.1019C89.6058 26.1019 87.2812 28.3448 87.2812 31.2253C87.2812 34.0861 89.6058 36.3093 92.1424 36.3093C93.3522 36.3093 94.3133 35.7679 94.8126 35.1496H94.8895V35.8837C94.8895 37.837 93.8521 38.8804 92.1806 38.8804C90.817 38.8804 89.9715 37.8946 89.6253 37.0635L87.6851 37.8754C88.2418 39.2282 89.7208 40.8914 92.1806 40.8914C94.794 40.8914 97.0035 39.3445 97.0035 35.5743V26.4112H94.8895V27.2424ZM98.5409 36H100.769V20.998H98.5409V36ZM104.054 31.0509C103.997 29.0788 105.573 28.0738 106.706 28.0738C107.59 28.0738 108.339 28.5187 108.589 29.1562L104.054 31.0509ZM110.971 29.3493C110.548 28.2093 109.261 26.1019 106.629 26.1019C104.016 26.1019 101.845 28.1704 101.845 31.2056C101.845 34.0669 103.997 36.3093 106.878 36.3093C109.203 36.3093 110.548 34.8792 111.106 34.0476L109.377 32.8874C108.8 33.7382 108.013 34.2988 106.878 34.2988C105.745 34.2988 104.938 33.7767 104.42 32.752L111.201 29.9296L110.971 29.3493ZM56.9372 27.6679V29.833H62.0862C61.9325 31.0509 61.529 31.9401 60.9141 32.5588C60.1646 33.3126 58.9925 34.1442 56.9372 34.1442C53.7669 34.1442 51.2886 31.573 51.2886 28.3832C51.2886 25.1934 53.7669 22.6219 56.9372 22.6219C58.6473 22.6219 59.8958 23.2987 60.8181 24.1687L62.3364 22.6411C61.0488 21.404 59.3391 20.4567 56.9372 20.4567C52.5944 20.4567 48.944 24.014 48.944 28.3832C48.944 32.752 52.5944 36.3093 56.9372 36.3093C59.2809 36.3093 61.0488 35.5359 62.432 34.0861C63.8538 32.6554 64.2959 30.645 64.2959 29.0208C64.2959 28.5187 64.2571 28.0546 64.1803 27.6679H56.9372ZM70.1498 34.2988C68.6124 34.2988 67.2866 33.0229 67.2866 31.2056C67.2866 29.369 68.6124 28.1127 70.1498 28.1127C71.6866 28.1127 73.0124 29.369 73.0124 31.2056C73.0124 33.0229 71.6866 34.2988 70.1498 34.2988ZM70.1498 26.1019C67.3439 26.1019 65.0579 28.2477 65.0579 31.2056C65.0579 34.1442 67.3439 36.3093 70.1498 36.3093C72.9547 36.3093 75.2411 34.1442 75.2411 31.2056C75.2411 28.2477 72.9547 26.1019 70.1498 26.1019ZM81.2562 34.2988C79.7199 34.2988 78.3936 33.0229 78.3936 31.2056C78.3936 29.369 79.7199 28.1127 81.2562 28.1127C82.7936 28.1127 84.1189 29.369 84.1189 31.2056C84.1189 33.0229 82.7936 34.2988 81.2562 34.2988ZM81.2562 26.1019C78.4513 26.1019 76.1654 28.2477 76.1654 31.2056C76.1654 34.1442 78.4513 36.3093 81.2562 36.3093C84.0621 36.3093 86.3481 34.1442 86.3481 31.2056C86.3481 28.2477 84.0621 26.1019 81.2562 26.1019Z" fill="white"/>
<path d="M53.043 15.8813C51.9738 15.8813 51.0542 15.5028 50.3127 14.7568C49.5708 14.0103 49.1951 13.0757 49.1951 11.9888C49.1951 10.902 49.571 9.96901 50.3127 9.22087C51.0542 8.47477 51.9738 8.09634 53.043 8.09634C53.5878 8.09634 54.0962 8.19101 54.582 8.38814C55.068 8.58529 55.4657 8.85897 55.7788 9.21712L55.8526 9.30173L55.0185 10.1408L54.9351 10.0377C54.7275 9.78094 54.4634 9.58148 54.1287 9.4365C53.7953 9.29187 53.4301 9.22509 53.043 9.22509C52.2899 9.22509 51.6651 9.48242 51.1433 10.0056C51.1432 10.0057 51.1429 10.0057 51.1428 10.0058C50.6329 10.5395 50.3765 11.1893 50.3765 11.9888C50.3765 12.789 50.6332 13.439 51.1437 13.9728C51.6655 14.4957 52.2904 14.7545 53.043 14.7545C53.7324 14.7545 54.3026 14.5608 54.7509 14.1774H54.7511C55.1684 13.8206 55.4188 13.3385 55.5074 12.7238H52.9238V11.6176H56.6241L56.6399 11.7188C56.6702 11.9133 56.6916 12.101 56.6916 12.2813C56.6916 13.3136 56.3789 14.1561 55.7653 14.776C55.0726 15.5149 54.1617 15.8813 53.043 15.8813L53.043 15.8813ZM85.1736 15.8813C84.1028 15.8813 83.1939 15.5026 82.4619 14.7568C82.4618 14.7567 82.4618 14.7567 82.4616 14.7566C82.4616 14.7565 82.4615 14.7564 82.4614 14.7563C81.7284 14.0186 81.3648 13.0837 81.3648 11.9888C81.3648 10.894 81.7284 9.95908 82.4614 9.22133C82.4615 9.22125 82.4615 9.22121 82.4616 9.22109L82.4619 9.22085C83.1939 8.47493 84.1028 8.09632 85.1736 8.09632C86.2424 8.09632 87.1516 8.47502 87.8835 9.2321C88.6167 9.96974 88.9806 10.9028 88.9806 11.9888C88.9806 13.0837 88.6169 14.0186 87.884 14.7563L87.8837 14.7566C87.1514 15.5029 86.2337 15.8813 85.1736 15.8813L85.1736 15.8813ZM57.7505 15.7201V8.25759H57.8698H62.1799V9.38634H58.9114V11.4357H61.8594V12.542H58.9114V14.5932H62.1799V15.7201H57.7505ZM64.8907 15.7201V9.38634H62.8857V8.25759H68.0567V9.38634H67.9374H66.0516V15.7201H64.8907ZM71.3615 15.7201V8.25759H72.5224V8.37759V15.7201H71.3615ZM75.4447 15.7201V9.38634H73.4396V8.25759H78.6106V9.38634H78.4914H76.6056V15.7201H75.4447ZM90.0111 15.7201V8.25759H91.3201L94.6517 13.6243L94.6231 12.6055V8.25759H95.784V15.7201H94.6352L91.1433 10.0822L91.172 11.1003V11.102V15.7201H90.0111ZM85.1736 14.7545C85.9267 14.7545 86.5415 14.496 87.0426 13.9738L87.0434 13.9728L87.0441 13.9721C87.5524 13.4605 87.8011 12.802 87.8011 11.9888C87.8011 11.1776 87.5523 10.5169 87.0441 10.0055L87.0434 10.0048L87.0426 10.0041C86.5416 9.48193 85.9269 9.22502 85.1736 9.22502C84.4191 9.22502 83.8044 9.48148 83.2939 10.0036L83.2934 10.0041C82.7945 10.5278 82.5462 11.1779 82.5462 11.9888C82.5462 12.8017 82.7945 13.4496 83.2934 13.9735L83.2939 13.9739C83.8045 14.4962 84.4193 14.7544 85.1736 14.7544V14.7545Z" fill="white"/>
<path d="M24.704 23.3078L12.0071 36.8678C12.0076 36.8706 12.0085 36.873 12.009 36.8758C12.3984 38.3481 13.7349 39.4324 15.3212 39.4324C15.9553 39.4324 16.5506 39.2599 17.0612 38.9571L17.1017 38.9331L31.3937 30.6349L24.704 23.3078Z" fill="#EA4335"/>
<path d="M37.5496 20.9989L37.5374 20.9905L31.3672 17.3913L24.4156 23.6155L31.3914 30.6335L37.529 27.0701C38.6051 26.4856 39.3356 25.3442 39.3356 24.0279C39.3356 22.7211 38.6149 21.5853 37.5496 20.9989Z" fill="#FBBC04"/>
<path d="M12.0066 11.1316C11.9303 11.4148 11.8901 11.7115 11.8901 12.0195V35.9806C11.8901 36.2881 11.9298 36.5857 12.0071 36.8679L25.141 23.6548L12.0066 11.1316Z" fill="#4285F4"/>
<path d="M24.7976 23.9998L31.3695 17.389L17.0937 9.06071C16.5748 8.74799 15.9692 8.56752 15.3212 8.56752C13.7349 8.56752 12.3966 9.65364 12.0071 11.1278C12.0066 11.1293 12.0066 11.1302 12.0066 11.1316L24.7976 23.9998Z" fill="#34A853"/>
</svg>
